# AST/ASF file generated using VICON BodyLanguage
# -----------------------------------------------
:version 1.10
:name VICON
:units
  mass 1.0
  length 0.45
  angle deg
:documentation
   .ast/.asf automatically generated from VICON data using
   VICON BodyBuilder and BodyLanguage model FoxedUp or BRILLIANT.MOD
:root
   order TX TY TZ RX RY RZ
   axis XYZ
   position 0 0 0  
   orientation 0 -0 0 
:bonedata
  begin
     id 1 
     name lhipjoint
     direction 0.432694 -0.693742 0.575759 
     length 2.19277 
     axis 0 -0 0  XYZ
  end
  begin
     id 2 
     name lfemur
     direction 0.34202 -0.939693 0  
     length 6.69022  
     axis 0 -0 20  XYZ
    dof rx ry rz
    limits (-160.0 20.0)
           (-70.0 70.0)
           (-60.0 70.0)
  end
  begin
     id 3 
     name ltibia
     direction 0.34202 -0.939693 0   
     length 6.50337   
     axis 0 -0 20   XYZ
    dof rx
    limits (-10.0 170.0)
  end
  begin
     id 4 
     name lfoot
     direction 0.158999 -0.435969 0.885805   
     length 2.70564   
     axis -90 -1.13533e-015 20   XYZ
    dof rx rz
    limits (-45.0 90.0)
           (-70.0 20.0)
  end
  begin
     id 5 
     name ltoes
     direction -0.00592919 0.00964381 0.999936   
     length 1.29929   
     axis -90 -1.13533e-015 20   XYZ
    dof rx
    limits (-90.0 20.0)
  end
  begin
     id 6 
     name rhipjoint
     direction -0.414359 -0.700339 0.581234   
     length 2.17212  
     axis 0 -0 0  XYZ 
  end
  begin
     id 7 
     name rfemur
     direction -0.34202 -0.939693 0   
     length 7.17659   
     axis 0 -0 -20   XYZ
    dof rx ry rz
    limits (-160.0 20.0)
           (-70.0 70.0)
           (-70.0 60.0)
  end
  begin
     id 8 
     name rtibia
     direction -0.34202 -0.939693 0   
     length 6.36669   
     axis 0 -0 -20   XYZ
    dof rx
    limits (-10.0 170.0)
 end
 begin
     id 9 
     name rfoot
     direction -0.137064 -0.37658 0.916188   
     length 2.22351  
     axis -90 1.13533e-015 -20   XYZ
    dof rx rz
    limits (-45.0 90.0)
           (-20.0 70.0)
  end
  begin
     id 10 
     name rtoes
     direction -0.000784077 -0.00289101 0.999996   
     length 1.09522   
     axis -90 1.13533e-015 -20   XYZ
    dof rx
    limits (-90.0 20.0)
  end
  begin
     id 11 
     name lowerback
     direction -0.0176242 0.984912 -0.172157   
     length 1.65301   
     axis 0 -0 0   XYZ
    dof rx ry rz
    limits (-20.0 45.0)
           (-30.0 30.0)
           (-30.0 30.0)
  end
  begin
     id 12 
     name upperback
     direction -0.00218128 0.998776 -0.0494072   
     length 1.67776   
     axis 0 -0 0   XYZ
    dof rx ry rz
    limits (-20.0 45.0)
           (-30.0 30.0)
           (-30.0 30.0)
  end
  begin
     id 13 
     name thorax
     direction 0.00544186 0.999658 0.0255711   
     length 1.72293   
     axis 0 -0 0   XYZ
    dof rx ry rz
    limits (-20.0 45.0)
           (-30.0 30.0)
           (-30.0 30.0)
  end
  begin
     id 14 
     name lowerneck
     direction -0.105325 0.983841 0.144785   
     length 2.14226   
     axis 0 -0 0   XYZ
    dof rx ry rz
    limits (-20.0 45.0)
           (-30.0 30.0)
           (-30.0 30.0)
  end
  begin
     id 15 
     name upperneck
     direction 0.0547957 0.988053 -0.144041   
     length 2.17508   
     axis 0 -0 0   XYZ
    dof rx ry rz
    limits (-20.0 45.0)
           (-30.0 30.0)
           (-30.0 30.0)
  end
  begin
     id 16
     name head
     direction 0.0247488 0.997534 -0.0656813  
     length 2.20048  
     axis 0 -0 0   XYZ
    dof rx ry rz
    limits (-20.0 45.0)
           (-30.0 30.0)
           (-30.0 30.0)
  end
  begin
     id 17 
     name lclavicle
     direction 0.820559 0.567247 -0.0701026  
     length 4.09615  
     axis 0 -0 0   XYZ
    dof ry rz
    limits (-20.0 10.0)
           (0.0 20.0)
  end
  begin
     id 18 
     name lhumerus
     direction 0.999977 -0.0067566 -9.96392e-005   
     length 4.59333   
     axis -180 -30 -90   XYZ
    dof rx ry rz
    limits (-60.0 90.0)
           (-90.0 90.0)
           (-90.0 90.0)
  end
  begin
     id 19
     name lradius
     direction 1 -4.48982e-011 -2.53425e-027   
     length 2.81151   
     axis -180 -30 -90   XYZ
    dof rx
    limits (-10.0 170.0)
  end
  begin
     id 20
     name lwrist
     direction 1 -4.48939e-011 -7.39254e-028   
     length 1.40576   
     axis 2.56395e-016 90 90   XYZ
    dof ry
    limits (-180.0 0.0)
 end
  begin
     id 21 
     name lhand
     direction 1 -4.48939e-011 -1.47851e-027   
     length 0.895651   
     axis 9.43423e-016 90 90   XYZ
    dof rx rz
    limits (-90.0 90.0)
           (-45.0 45.0)
  end
  begin
     id 22 
     name lfingers
     direction 1 -4.48978e-011 -2.95702e-027   
     length 0.722097   
     axis 1.88685e-015 90 90   XYZ
    dof rx
    limits (0.0 90.0)
  end
  begin
     id 23
     name lthumb
     direction 0.707107 -6.34931e-011 0.707107   
     length 1.03679   
     axis -90 45 -9.86935e-015   XYZ
    dof rx rz
    limits (-45.0 45.0)
           (-45.0 45.0)
  end
  begin
     id 24 
     name rclavicle
     direction -0.831414 0.553102 -0.0531864   
     length 4.24872  
     axis 0 -0 0   XYZ 
    dof ry rz
    limits (-10.0 20.0)
           (-20.0 0.0)
  end
  begin
     id 25 
     name rhumerus
     direction -0.999916 -0.000939607 0.0129331  
     length 4.74834   
     axis -180 30 90   XYZ
    dof rx ry rz
    limits (-90.0 60.0)
           (-90.0 90.0)
           (-90.0 90.0)
  end
  begin
     id 26 
     name rradius
     direction -1 -4.48956e-011 -1.31752e-027   
     length 2.79907   
     axis -180 30 90   XYZ
    dof rx
    limits (-10.0 170.0)
  end
  begin
     id 27 
     name rwrist
     direction -1 -4.4897e-011 -7.39254e-028   
     length 1.39954   
     axis 2.56395e-016 -90 -90   XYZ
    dof ry
    limits (-180.0 0.0)
  end
  begin
     id 28
     name rhand
     direction -0.999997 -0.00250697 0.000800838   
     length 0.953304   
     axis 9.43423e-016 -90 -90   XYZ
    dof rx rz
    limits (-90.0 90.0)
           (-45.0 45.0)
  end
  begin
     id 29
     name rfingers
     direction -1 -4.48954e-011 -2.95702e-027   
     length 0.763342   
     axis 1.88685e-015 -90 -90   XYZ
    dof rx
    limits (0.0 90.0)
  end
  begin
     id 30
     name rthumb
     direction -0.709701 -0.00217037 0.7045   
     length 1.10115   
     axis -90 -45 9.86935e-015   XYZ
    dof rx rz
    limits (-45.0 45.0)
           (-45.0 45.0)
  end
:hierarchy
  begin
    root lhipjoint rhipjoint lowerback
    lhipjoint lfemur
    lfemur ltibia
    ltibia lfoot
    lfoot ltoes
    rhipjoint rfemur
    rfemur rtibia
    rtibia rfoot
    rfoot rtoes
    lowerback upperback
    upperback thorax
    thorax lowerneck lclavicle rclavicle
    lowerneck upperneck
    upperneck head
    lclavicle lhumerus
    lhumerus lradius
    lradius lwrist
    lwrist lhand lthumb
    lhand lfingers
    rclavicle rhumerus
    rhumerus rradius
    rradius rwrist
    rwrist rhand rthumb
    rhand rfingers
  end

#!OML:ASF G:\ViconDB\ViconDB\414\test\team2\shane.ASF
:FULLY-SPECIFIED
:DEGREES
82
root 8.29226 12.9442 -12.4848 16.0904 -24.3626 4.23051
lowerback 27.6927 3.10166 0.785152
upperback 12.3829 3.94001 3.2539
thorax -1.6302 1.74524 1.99688
lowerneck -25.2935 2.38986 -1.91181
upperneck 9.29013 3.83829 -0.0616682
head 6.8296 1.76851 0.769313
rclavicle 1.90833e-014 2.94201e-014
rhumerus 16.1115 -1.04908 -67.6021
rradius 30.6479
rwrist 37.0958
rhand -31.5556 -15.1273
rfingers 7.12502
rthumb -4.81962 -45.0525
lclavicle 1.90833e-014 2.94201e-014
lhumerus 7.71296 -5.27582 53.5424
lradius 71.014
lwrist 9.74435
lhand -47.8556 9.34392
lfingers 7.12502
lthumb -20.5297 38.2784
rfemur -66.2469 -29.807 14.7175
rtibia 100.837
rfoot -38.3185 -9.52332
rtoes -17.2074
lfemur -64.2451 26.3318 -19.5447
ltibia 97.3571
lfoot -42.7527 -1.17449
ltoes -17.4765
83
root 8.29226 12.9442 -12.4848 16.0904 -24.3626 4.23051
lowerback 27.6927 3.10166 0.785152
upperback 12.3829 3.94001 3.2539
thorax -1.6302 1.74524 1.99688
lowerneck -25.2935 2.38986 -1.91181
upperneck 9.29013 3.83829 -0.0616682
head 6.8296 1.76851 0.769313
rclavicle 1.90833e-014 2.94201e-014
rhumerus 16.1115 -1.04908 -67.6021
rradius 30.6479
rwrist 37.0958
rhand -31.5556 -15.1273
rfingers 7.12502
rthumb -4.81962 -45.0525
lclavicle 1.90833e-014 2.94201e-014
lhumerus 7.71296 -5.27582 53.5424
lradius 71.014
lwrist 9.74435
lhand -47.8556 9.34392
lfingers 7.12502
lthumb -20.5297 38.2784
rfemur -66.2469 -29.807 14.7175
rtibia 100.837
rfoot -38.3185 -9.52332
rtoes -17.2074
lfemur -64.2451 26.3318 -19.5447
ltibia 97.3571
lfoot -42.7527 -1.17449
ltoes -17.4765
84
root 8.57033 13.7403 -11.4704 27.3221 -24.712 0.337539
lowerback 26.0111 -0.845443 2.55362
upperback 13.5774 -0.849126 -0.0265816
thorax 0.631113 -0.408312 -1.27506
lowerneck -26.6301 5.51531 1.01755
upperneck -1.57432 6.74404 2.53739
head 3.43162 3.50379 1.32587
rclavicle -3.4191e-014 4.17448e-015
rhumerus 16.0146 29.7789 -77.0074
rradius 62.8584
rwrist 29.5966
rhand -36.6617 -13.4525
rfingers 7.12502
rthumb -9.74829 -43.2069
lclavicle -3.4191e-014 4.17448e-015
lhumerus 28.6995 -39.4269 58.1843
lradius 46.6345
lwrist 4.47553
lhand -41.0297 5.52127
lfingers 7.12502
lthumb -13.9602 35.0326
rfemur -68.5734 -26.831 16.3024
rtibia 90.9728
rfoot -33.4624 -6.57025
rtoes -18.5527
lfemur -67.5932 22.1584 -21.6271
ltibia 90.5506
lfoot -43.1237 5.90289
ltoes -17.0144
85
root 8.56113 13.9131 -11.3088 27.5128 -24.6698 -0.20538
lowerback 25.8282 -1.1236 2.92276
upperback 13.4222 -1.12235 -0.143435
thorax 0.526266 -0.521051 -1.54493
lowerneck -26.1526 5.68346 1.00772
upperneck -2.23493 7.00644 2.35037
head 3.18672 3.6161 1.26541
rclavicle 1.58034e-014 1.95182e-014
rhumerus 12.7731 30.2458 -79.5446
rradius 63.9067
rwrist 28.0256
rhand -36.3362 -13.8608
rfingers 7.12502
rthumb -9.43417 -43.6296
lclavicle 1.58034e-014 1.95182e-014
lhumerus 26.0178 -40.7724 61.2843
lradius 46.9577
lwrist 3.89885
lhand -40.7056 5.19116
lfingers 7.12502
lthumb -13.6479 34.7237
rfemur -66.5434 -26.3223 16.0135
rtibia 88.7967
rfoot -32.7 -6.12667
rtoes -18.4852
lfemur -66.0492 22.2037 -21.0349
ltibia 89.0089
lfoot -42.3792 5.4115
ltoes -17.5592
86
root 8.53712 14.0907 -11.1399 27.5832 -24.8687 -0.708374
lowerback 25.5766 -1.2815 2.92275
upperback 13.2614 -1.32581 -0.222055
thorax 0.450958 -0.620977 -1.58169
lowerneck -25.9586 5.99318 0.975035
upperneck -2.48473 7.45652 1.99198
head 3.08788 3.81783 1.18968
rclavicle 3.04141e-014 -3.50855e-014
rhumerus 9.49896 30.3543 -82.2649
rradius 64.7489
rwrist 26.7688
rhand -35.1829 -13.7424
rfingers 7.12502
rthumb -8.32125 -43.5585
lclavicle 3.04141e-014 -3.50855e-014
lhumerus 22.549 -41.5686 65.1332
lradius 47.3168
lwrist 3.40353
lhand -40.3439 4.93844
lfingers 7.12502
lthumb -13.2993 34.4941
rfemur -64.4095 -25.6965 15.82
rtibia 86.5218
rfoot -31.9749 -6.16877
rtoes -18.7306
lfemur -64.3036 22.5536 -20.4749
ltibia 87.3741
lfoot -41.6286 4.6919
ltoes -17.8777
87
root 8.51098 14.2647 -10.9596 27.4265 -24.9432 -1.03994
lowerback 25.3235 -1.5918 3.0037
upperback 13.1137 -1.70503 -0.399721
thorax 0.378896 -0.798317 -1.72934
lowerneck -25.9693 6.25465 0.947218
upperneck -2.58396 7.81092 1.95543
head 3.05353 3.99162 1.21376
rclavicle -3.37934e-014 -5.76476e-015
rhumerus 6.22462 30.3837 -84.8876
rradius 65.2772
rwrist 26.7019
rhand -35.0071 -13.3163
rfingers 7.12502
rthumb -8.1516 -43.139
lclavicle -3.37934e-014 -5.76476e-015
lhumerus 18.5583 -42.0517 69.1348
lradius 47.6716
lwrist 3.20605
lhand -40.4525 5.04139
lfingers 7.12502
lthumb -13.4039 34.5902
rfemur -62.0885 -25.3909 15.597
rtibia 84.2109
rfoot -31.297 -6.24192
rtoes -18.6347
lfemur -62.3293 22.8398 -20.0594
ltibia 85.7084
lfoot -40.7267 4.24535
ltoes -18.5284
88
root 8.47856 14.4492 -10.7664 27.0865 -25.1956 -1.45163
lowerback 25.1084 -1.72579 2.95042
upperback 12.9512 -1.89018 -0.489473
thorax 0.285908 -0.892108 -1.75251
lowerneck -25.993 6.48876 0.882836
upperneck -2.46872 8.14008 1.86699
head 3.08957 4.15117 1.23001
rclavicle -2.74323e-014 -2.24627e-014
rhumerus 2.87052 30.4728 -87.0997
rradius 65.8238
rwrist 26.8792
rhand -34.3481 -13.1135
rfingers 7.12502
rthumb -7.51555 -42.96
lclavicle -2.74323e-014 -2.24627e-014
lhumerus 14.4614 -42.5191 73.3718
lradius 47.7915
lwrist 3.30973
lhand -40.7305 5.33796
lfingers 7.12502
lthumb -13.6719 34.8689
rfemur -59.4442 -24.8991 15.3766
rtibia 81.8111
rfoot -30.5058 -6.48942
rtoes -18.7351
lfemur -60.0526 23.3565 -19.5319
ltibia 84.0302
lfoot -39.7577 3.65441
ltoes -19.098
89
root 8.44446 14.629 -10.5661 26.3887 -25.2554 -1.61312
lowerback 24.9698 -1.99208 3.04384
upperback 12.7625 -2.20922 -0.704824
thorax 0.113046 -1.03966 -1.95979
lowerneck -25.7038 6.89119 1.29706
upperneck -2.34469 8.57719 1.46712
head 3.11778 4.3433 1.07834
rclavicle 4.37326e-015 1.59028e-014
rhumerus -0.644656 30.314 -89.5727
rradius 65.7819
rwrist 26.6442
rhand -34.1202 -12.3143
rfingers 7.12502
rthumb -7.29559 -42.1685
lclavicle 4.37326e-015 1.59028e-014
lhumerus 10.2355 -42.7948 77.4765
lradius 47.8698
lwrist 4.16256
lhand -40.6238 5.20972
lfingers 7.12502
lthumb -13.569 34.7476
rfemur -56.451 -24.8287 14.9133
rtibia 79.3793
rfoot -29.7102 -6.50545
rtoes -18.4711
lfemur -57.4324 23.4741 -18.9325
ltibia 82.4125
lfoot -38.6139 3.09226
ltoes -19.727
90
root 8.40842 14.813 -10.3671 25.5877 -25.534 -1.8544
lowerback 24.9922 -1.94374 2.88334
upperback 12.4995 -2.17677 -0.774807
thorax -0.189246 -1.03497 -1.94606
lowerneck -25.6257 6.96387 1.09498
upperneck -1.88387 8.7142 1.73004
head 3.23255 4.42971 1.21203
rclavicle -6.40087e-014 2.42517e-014
rhumerus -4.20199 29.5198 -91.633
rradius 65.5613
rwrist 28.117
rhand -33.5531 -11.5806
rfingers 7.12502
rthumb -6.74819 -41.4531
lclavicle -6.40087e-014 2.42517e-014
lhumerus 6.14265 -43.3053 81.4744
lradius 47.7449
lwrist 4.63332
lhand -40.5318 5.54222
lfingers 7.12502
lthumb -13.4804 35.086
rfemur -53.4413 -24.3345 14.3591
rtibia 76.9036
rfoot -28.5731 -6.65938
rtoes -18.0498
lfemur -54.7881 23.6822 -18.1597
ltibia 80.9621
lfoot -37.1007 2.10956
ltoes -20.4016
91
root 8.36921 14.9931 -10.1582 24.6447 -25.6566 -2.07014
lowerback 24.8974 -1.99004 2.95908
upperback 12.2817 -2.22108 -0.911059
thorax -0.396998 -1.05304 -2.12298
lowerneck -25.5444 7.1026 1.24528
upperneck -1.3283 8.84419 1.77802
head 3.37631 4.49842 1.22757
rclavicle 3.02153e-014 2.14687e-014
rhumerus -7.53001 29.1513 -93.5061
rradius 65.2005
rwrist 27.9919
rhand -33.3485 -11.2974
rfingers 7.12502
rthumb -6.55063 -41.1761
lclavicle 3.02153e-014 2.14687e-014
lhumerus 2.15471 -43.5748 85.1223
lradius 47.4836
lwrist 4.71872
lhand -39.9624 5.58613
lfingers 7.12502
lthumb -12.9315 35.1654
rfemur -50.1639 -23.8969 13.6401
rtibia 74.4037
rfoot -27.3367 -6.53593
rtoes -17.9057
lfemur -52.1131 23.7728 -17.3523
ltibia 79.6972
lfoot -35.3161 1.43958
ltoes -21.1082
92
root 8.32979 15.1648 -9.94714 23.7386 -25.7322 -2.39291
lowerback 24.6534 -2.0408 3.17317
upperback 12.0612 -2.24614 -1.01915
thorax -0.537338 -1.05638 -2.3565
lowerneck -25.4047 7.27529 1.47453
upperneck -0.701504 9.00622 1.69601
head 3.56858 4.5753 1.19531
rclavicle 3.18055e-015 -2.78299e-015
rhumerus -11.0129 28.3187 -95.4181
rradius 64.8042
rwrist 29.3309
rhand -33.0212 -11.1099
rfingers 7.12502
rthumb -6.23467 -40.9982
lclavicle 3.18055e-015 -2.78299e-015
lhumerus -1.51614 -44.0214 88.1528
lradius 47.041
lwrist 4.31101
lhand -39.5754 5.46189
lfingers 7.12502
lthumb -12.5584 35.0645
rfemur -46.9071 -23.3999 13.0065
rtibia 71.8831
rfoot -25.7918 -6.55609
rtoes -18.3556
lfemur -49.5886 23.5598 -16.2054
ltibia 78.6779
lfoot -33.1621 0.18592
ltoes -21.2257
93
root 8.2875 15.3293 -9.73986 22.6856 -25.8099 -2.54279
lowerback 24.5265 -2.07906 3.22459
upperback 11.7908 -2.28325 -1.12918
thorax -0.785526 -1.07436 -2.49274
lowerneck -25.3307 7.36467 1.49425
upperneck 0.0850463 9.10206 1.82523
head 3.8038 4.63347 1.26079
rclavicle -3.18055e-014 3.10104e-014
rhumerus -14.2912 28.0491 -97.2669
rradius 64.3502
rwrist 28.7785
rhand -33.0799 -11.1998
rfingers 7.12502
rthumb -6.29135 -41.0864
lclavicle -3.18055e-014 3.10104e-014
lhumerus -5.29331 -44.1926 91.1698
lradius 46.7931
lwrist 3.72821
lhand -39.1968 5.70844
lfingers 7.12502
lthumb -12.1934 35.333
rfemur -43.6055 -22.6524 12.0659
rtibia 69.3716
rfoot -24.0896 -6.20877
rtoes -17.9065
lfemur -47.2768 23.4209 -15.2738
ltibia 77.93
lfoot -30.5894 -1.06001
ltoes -21.5681
94
root 8.24553 15.5009 -9.52394 21.454 -25.7458 -2.72725
lowerback 24.5178 -2.20106 3.48979
upperback 11.4877 -2.37732 -1.25719
thorax -1.13562 -1.11396 -2.75239
lowerneck -25.1307 7.54508 1.74263
upperneck 1.03848 9.27247 1.71776
head 4.0959 4.71427 1.22689
rclavicle 2.46493e-014 -1.55052e-014
rhumerus -17.6048 27.4343 -99.061
rradius 64.0157
rwrist 28.761
rhand -32.3657 -10.6613
rfingers 7.12502
rthumb -5.60179 -40.5673
lclavicle 2.46493e-014 -1.55052e-014
lhumerus -9.09888 -44.6304 93.8872
lradius 46.5251
lwrist 2.69159
lhand -38.9239 5.76003
lfingers 7.12502
lthumb -11.9302 35.4001
rfemur -39.9068 -21.6822 11.0031
rtibia 66.7712
rfoot -22.334 -5.83311
rtoes -17.8261
lfemur -44.8991 23.0219 -14.1677
ltibia 77.3839
lfoot -27.7052 -2.50121
ltoes -21.2046
95
root 8.20754 15.6617 -9.31755 20.3048 -25.5714 -2.78902
lowerback 25.4274 -0.359551 -0.763765
upperback 10.7254 -0.734131 3.01203
thorax -2.19519 -0.57073 3.90299
lowerneck -25.9396 6.18194 -3.92658
upperneck 2.91547 9.31314 0.70835
head 4.61922 4.57676 1.82627
rclavicle -1.66358e-014 1.44429e-015
rhumerus -21.3958 28.9359 -93.8281
rradius 64.758
rwrist 27.2664
rhand -31.3137 -10.465
rfingers 7.12502
rthumb -4.58604 -40.3954
lclavicle -1.66358e-014 1.44429e-015
lhumerus -12.3511 -42.9072 103.336
lradius 45.3832
lwrist 0.519827
lhand -38.878 5.29642
lfingers 7.12502
lthumb -11.886 34.939
rfemur -36.4673 -20.6281 9.98022
rtibia 64.1503
rfoot -20.3529 -5.59217
rtoes -17.7208
lfemur -43.1283 22.4634 -13.3157
ltibia 77.073
lfoot -24.4481 -3.8426
ltoes -20.7655
